G04 #@! TF.FileFunction,Copper,L1,Top,Signal*
%FSLAX46Y46*%
G04 Gerber Fmt 4.6, Leading zero omitted, Abs format (unit mm)*
G04 Created by KiCad (PCBNEW (2014-12-04 BZR 5312)-product) date 4/25/2015 12:46:18 PM*
%MOMM*%
G01*
G04 APERTURE LIST*
%ADD10C,0.100000*%
%ADD11C,1.500000*%
%ADD12R,1.500000X1.500000*%
%ADD13C,1.524000*%
%ADD14R,2.032000X2.032000*%
%ADD15O,2.032000X2.032000*%
%ADD16R,2.032000X1.727200*%
%ADD17O,2.032000X1.727200*%
%ADD18C,4.318000*%
%ADD19C,1.422400*%
%ADD20C,1.016000*%
%ADD21C,0.635000*%
%ADD22C,1.270000*%
G04 APERTURE END LIST*
D10*
D11*
X75247500Y-136207500D03*
X65087500Y-136207500D03*
X62547500Y-136207500D03*
X62547500Y-128587500D03*
D12*
X75247500Y-128587500D03*
D11*
X65087500Y-128587500D03*
X105727500Y-136207500D03*
X95567500Y-136207500D03*
X93027500Y-136207500D03*
X93027500Y-128587500D03*
D12*
X105727500Y-128587500D03*
D11*
X95567500Y-128587500D03*
X90487500Y-136207500D03*
X80327500Y-136207500D03*
X77787500Y-136207500D03*
X77787500Y-128587500D03*
D12*
X90487500Y-128587500D03*
D11*
X80327500Y-128587500D03*
X136207500Y-136207500D03*
X126047500Y-136207500D03*
X123507500Y-136207500D03*
X123507500Y-128587500D03*
D12*
X136207500Y-128587500D03*
D11*
X126047500Y-128587500D03*
X120967500Y-136207500D03*
X110807500Y-136207500D03*
X108267500Y-136207500D03*
X108267500Y-128587500D03*
D12*
X120967500Y-128587500D03*
D11*
X110807500Y-128587500D03*
X151447500Y-136207500D03*
X141287500Y-136207500D03*
X138747500Y-136207500D03*
X138747500Y-128587500D03*
D12*
X151447500Y-128587500D03*
D11*
X141287500Y-128587500D03*
X75247500Y-114617500D03*
X65087500Y-114617500D03*
X62547500Y-114617500D03*
X62547500Y-106997500D03*
D12*
X75247500Y-106997500D03*
D11*
X65087500Y-106997500D03*
X105727500Y-114617500D03*
X95567500Y-114617500D03*
X93027500Y-114617500D03*
X93027500Y-106997500D03*
D12*
X105727500Y-106997500D03*
D11*
X95567500Y-106997500D03*
X77787500Y-106997500D03*
X87947500Y-106997500D03*
X90487500Y-106997500D03*
X90487500Y-114617500D03*
D12*
X77787500Y-114617500D03*
D11*
X87947500Y-114617500D03*
X120967500Y-114617500D03*
X110807500Y-114617500D03*
X108267500Y-114617500D03*
X108267500Y-106997500D03*
D12*
X120967500Y-106997500D03*
D11*
X110807500Y-106997500D03*
X136207500Y-114617500D03*
X126047500Y-114617500D03*
X123507500Y-114617500D03*
X123507500Y-106997500D03*
D12*
X136207500Y-106997500D03*
D11*
X126047500Y-106997500D03*
X75247500Y-92392500D03*
X65087500Y-92392500D03*
X62547500Y-92392500D03*
X62547500Y-84772500D03*
D12*
X75247500Y-84772500D03*
D11*
X65087500Y-84772500D03*
X90487500Y-92392500D03*
X80327500Y-92392500D03*
X77787500Y-92392500D03*
X77787500Y-84772500D03*
D12*
X90487500Y-84772500D03*
D11*
X80327500Y-84772500D03*
X105727500Y-92392500D03*
X95567500Y-92392500D03*
X93027500Y-92392500D03*
X93027500Y-84772500D03*
D12*
X105727500Y-84772500D03*
D11*
X95567500Y-84772500D03*
X108267500Y-84772500D03*
X118427500Y-84772500D03*
X120967500Y-84772500D03*
X120967500Y-92392500D03*
D12*
X108267500Y-92392500D03*
D11*
X118427500Y-92392500D03*
X151447500Y-92392500D03*
X141287500Y-92392500D03*
X138747500Y-92392500D03*
X138747500Y-84772500D03*
D12*
X151447500Y-84772500D03*
D11*
X141287500Y-84772500D03*
X136207500Y-92392500D03*
X126047500Y-92392500D03*
X123507500Y-92392500D03*
X123507500Y-84772500D03*
D12*
X136207500Y-84772500D03*
D11*
X126047500Y-84772500D03*
X153987500Y-84772500D03*
X164147500Y-84772500D03*
X166687500Y-84772500D03*
X166687500Y-92392500D03*
D12*
X153987500Y-92392500D03*
D11*
X164147500Y-92392500D03*
X181927500Y-92392500D03*
X171767500Y-92392500D03*
X169227500Y-92392500D03*
X169227500Y-84772500D03*
D12*
X181927500Y-84772500D03*
D11*
X171767500Y-84772500D03*
X75247500Y-47942500D03*
X65087500Y-47942500D03*
X62547500Y-47942500D03*
X62547500Y-40322500D03*
D12*
X75247500Y-40322500D03*
D11*
X65087500Y-40322500D03*
X90487500Y-47942500D03*
X80327500Y-47942500D03*
X77787500Y-47942500D03*
X77787500Y-40322500D03*
D12*
X90487500Y-40322500D03*
D11*
X80327500Y-40322500D03*
X105727500Y-47942500D03*
X95567500Y-47942500D03*
X93027500Y-47942500D03*
X93027500Y-40322500D03*
D12*
X105727500Y-40322500D03*
D11*
X95567500Y-40322500D03*
X120967500Y-47942500D03*
X110807500Y-47942500D03*
X108267500Y-47942500D03*
X108267500Y-40322500D03*
D12*
X120967500Y-40322500D03*
D11*
X110807500Y-40322500D03*
X151447500Y-47942500D03*
X141287500Y-47942500D03*
X138747500Y-47942500D03*
X138747500Y-40322500D03*
D12*
X151447500Y-40322500D03*
D11*
X141287500Y-40322500D03*
X136207500Y-47942500D03*
X126047500Y-47942500D03*
X123507500Y-47942500D03*
X123507500Y-40322500D03*
D12*
X136207500Y-40322500D03*
D11*
X126047500Y-40322500D03*
X166687500Y-47942500D03*
X156527500Y-47942500D03*
X153987500Y-47942500D03*
X153987500Y-40322500D03*
D12*
X166687500Y-40322500D03*
D11*
X156527500Y-40322500D03*
X93027500Y-57467500D03*
X103187500Y-57467500D03*
X105727500Y-57467500D03*
X105727500Y-65087500D03*
D12*
X93027500Y-65087500D03*
D11*
X103187500Y-65087500D03*
X62547500Y-57467500D03*
X72707500Y-57467500D03*
X75247500Y-57467500D03*
X75247500Y-65087500D03*
D12*
X62547500Y-65087500D03*
D11*
X72707500Y-65087500D03*
X77787500Y-57467500D03*
X87947500Y-57467500D03*
X90487500Y-57467500D03*
X90487500Y-65087500D03*
D12*
X77787500Y-65087500D03*
D11*
X87947500Y-65087500D03*
X108267500Y-57467500D03*
X118427500Y-57467500D03*
X120967500Y-57467500D03*
X120967500Y-65087500D03*
D12*
X108267500Y-65087500D03*
D11*
X118427500Y-65087500D03*
X123507500Y-57467500D03*
X133667500Y-57467500D03*
X136207500Y-57467500D03*
X136207500Y-65087500D03*
D12*
X123507500Y-65087500D03*
D11*
X133667500Y-65087500D03*
X181927500Y-65087500D03*
X171767500Y-65087500D03*
X169227500Y-65087500D03*
X169227500Y-57467500D03*
D12*
X181927500Y-57467500D03*
D11*
X171767500Y-57467500D03*
X151447500Y-65087500D03*
X141287500Y-65087500D03*
X138747500Y-65087500D03*
X138747500Y-57467500D03*
D12*
X151447500Y-57467500D03*
D11*
X141287500Y-57467500D03*
X153987500Y-57467500D03*
X164147500Y-57467500D03*
X166687500Y-57467500D03*
X166687500Y-65087500D03*
D12*
X153987500Y-65087500D03*
D11*
X164147500Y-65087500D03*
D13*
X73342500Y-143192500D03*
X83502500Y-143192500D03*
X188277500Y-130492500D03*
X178117500Y-130492500D03*
X188277500Y-133032500D03*
X178117500Y-133032500D03*
X188277500Y-110807500D03*
X178117500Y-110807500D03*
X188277500Y-113347500D03*
X178117500Y-113347500D03*
X188277500Y-115887500D03*
X178117500Y-115887500D03*
X188277500Y-118427500D03*
X178117500Y-118427500D03*
X188277500Y-120967500D03*
X178117500Y-120967500D03*
X188277500Y-123507500D03*
X178117500Y-123507500D03*
D14*
X56197500Y-137477500D03*
D15*
X56197500Y-140017500D03*
D14*
X207327500Y-133032500D03*
D15*
X207327500Y-130492500D03*
D16*
X207327500Y-123507500D03*
D17*
X207327500Y-120967500D03*
X207327500Y-118427500D03*
X207327500Y-115887500D03*
X207327500Y-113347500D03*
X207327500Y-110807500D03*
D13*
X75882500Y-150812500D03*
X73342500Y-150812500D03*
X136207500Y-150812500D03*
X133667500Y-150812500D03*
X161607500Y-150812500D03*
X159067500Y-150812500D03*
X142557500Y-150812500D03*
X140017500Y-150812500D03*
X148907500Y-150812500D03*
X146367500Y-150812500D03*
X155257500Y-150812500D03*
X152717500Y-150812500D03*
X167957500Y-150812500D03*
X165417500Y-150812500D03*
X174307500Y-150812500D03*
X171767500Y-150812500D03*
X180657500Y-150812500D03*
X178117500Y-150812500D03*
D18*
X53657500Y-39687500D03*
X53657500Y-148907500D03*
X210502500Y-39687500D03*
X210502500Y-148907500D03*
D19*
X181927500Y-98742500D03*
X151447500Y-98742500D03*
X75247500Y-124142500D03*
X120967500Y-124142500D03*
X136207500Y-53022500D03*
X151447500Y-53022500D03*
X75247500Y-53022500D03*
X105727500Y-53022500D03*
X100012500Y-124142500D03*
X200372200Y-96203892D03*
X164147500Y-96202500D03*
X200342500Y-115887500D03*
X200342500Y-37782500D03*
X200342500Y-54927500D03*
X133667500Y-68897500D03*
X202247500Y-68262500D03*
X202247500Y-113347500D03*
X198437500Y-51752500D03*
X171767500Y-51752500D03*
X198437500Y-118427500D03*
X157797500Y-96202500D03*
X190817500Y-105092500D03*
X162877500Y-105092500D03*
X190817500Y-76517500D03*
X72707500Y-76517500D03*
X190817500Y-133032500D03*
X192722500Y-70802500D03*
X192722500Y-130492500D03*
X58102500Y-74612500D03*
X164147500Y-74612500D03*
X118427500Y-74612500D03*
X141287500Y-74612500D03*
X171767500Y-74612500D03*
X95567500Y-101282500D03*
X80327500Y-101282500D03*
X171767500Y-101282500D03*
X141287500Y-101282500D03*
X126047500Y-101282500D03*
X65087500Y-101282500D03*
X58102500Y-101282500D03*
X87947500Y-101282500D03*
X95631583Y-121601961D03*
X58102500Y-121602500D03*
X164147500Y-51117500D03*
X58102500Y-51117500D03*
X72707500Y-51117500D03*
X87947500Y-51117500D03*
X103187500Y-51117500D03*
X118427500Y-51117500D03*
X133667500Y-51117500D03*
X58102500Y-133667500D03*
X207327500Y-103187500D03*
X194627500Y-42862500D03*
X110807500Y-80327500D03*
X194627500Y-80327500D03*
X194627500Y-123507500D03*
X146367500Y-106997500D03*
X146367500Y-126047500D03*
X194627500Y-106997500D03*
X196532500Y-78422500D03*
X196532500Y-120967500D03*
X126047500Y-72707500D03*
X87947500Y-72707500D03*
X126047500Y-82232500D03*
X141287500Y-82232500D03*
D20*
X193072500Y-149907500D02*
X194977500Y-148002500D01*
X190532500Y-152447500D02*
X193072500Y-149907500D01*
X194977500Y-148002500D02*
X200692500Y-148002500D01*
X186087500Y-148002500D02*
X190532500Y-152447500D01*
X193072500Y-149907500D02*
X198787500Y-149907500D01*
X181927500Y-98742500D02*
X151447500Y-98742500D01*
X108267500Y-92392500D02*
X108267500Y-98742500D01*
X90487500Y-128587500D02*
X90487500Y-124142500D01*
X151447500Y-98742500D02*
X108267500Y-98742500D01*
X100012500Y-124142500D02*
X90487500Y-124142500D01*
X120967500Y-124142500D02*
X100012500Y-124142500D01*
X90487500Y-124142500D02*
X75247500Y-124142500D01*
X151447500Y-124142500D02*
X136207500Y-124142500D01*
X136207500Y-124142500D02*
X120967500Y-124142500D01*
X75247500Y-98742500D02*
X56197500Y-98742500D01*
X108267500Y-98742500D02*
X75247500Y-98742500D01*
X75247500Y-92392500D02*
X75247500Y-98742500D01*
X166687500Y-53022500D02*
X166687500Y-47942500D01*
X151447500Y-53022500D02*
X166687500Y-53022500D01*
X136207500Y-53022500D02*
X151447500Y-53022500D01*
X108267500Y-53022500D02*
X136207500Y-53022500D01*
X105727500Y-53022500D02*
X108267500Y-53022500D01*
X93027500Y-53022500D02*
X105727500Y-53022500D01*
X77787500Y-53022500D02*
X93027500Y-53022500D01*
X75247500Y-53022500D02*
X77787500Y-53022500D01*
X56197500Y-53022500D02*
X75247500Y-53022500D01*
X77787500Y-57467500D02*
X77787500Y-53022500D01*
X93027500Y-57467500D02*
X93027500Y-53022500D01*
X108267500Y-57467500D02*
X108267500Y-53022500D01*
X75247500Y-124142500D02*
X56197500Y-124142500D01*
X56197500Y-124142500D02*
X56197500Y-98742500D01*
X56197500Y-98742500D02*
X56197500Y-53022500D01*
X151447500Y-128587500D02*
X151447500Y-124142500D01*
X136207500Y-124142500D02*
X136207500Y-114617500D01*
X56197500Y-124142500D02*
X56197500Y-137477500D01*
D21*
X164147500Y-96202500D02*
X200372200Y-96203892D01*
X141287500Y-57467500D02*
X141287500Y-54927500D01*
D20*
X200342500Y-115887500D02*
X188277500Y-115887500D01*
X207327500Y-115887500D02*
X200342500Y-115887500D01*
D21*
X141287500Y-40322500D02*
X141287500Y-37782500D01*
X200342500Y-37782500D02*
X141287500Y-37782500D01*
X141287500Y-54927500D02*
X200342500Y-54927500D01*
X118427500Y-62547500D02*
X136207500Y-62547500D01*
X136207500Y-62547500D02*
X136207500Y-65087500D01*
X118427500Y-65087500D02*
X118427500Y-62547500D01*
X136207500Y-67627500D02*
X133667500Y-68897500D01*
X136207500Y-65087500D02*
X136207500Y-67627500D01*
D20*
X202247500Y-113347500D02*
X207327500Y-113347500D01*
X188277500Y-113347500D02*
X202247500Y-113347500D01*
D21*
X202247500Y-68262500D02*
X164147500Y-68262500D01*
X164147500Y-65087500D02*
X164147500Y-68262500D01*
D20*
X198437500Y-118427500D02*
X188277500Y-118427500D01*
X207327500Y-118427500D02*
X198437500Y-118427500D01*
D21*
X198437500Y-51752500D02*
X171767500Y-51752500D01*
X157797500Y-96202500D02*
X118427500Y-96202500D01*
X190817500Y-105092500D02*
X162877500Y-105092500D01*
X72707500Y-76517500D02*
X190817500Y-76517500D01*
X118427500Y-96202500D02*
X118427500Y-92392500D01*
D20*
X190817500Y-133032500D02*
X207327500Y-133032500D01*
X188277500Y-133032500D02*
X190817500Y-133032500D01*
D21*
X120967500Y-70802500D02*
X105727500Y-70802500D01*
X105727500Y-68897500D02*
X105727500Y-66357500D01*
X105727500Y-70802500D02*
X105727500Y-68897500D01*
X105727500Y-65087500D02*
X105727500Y-68897500D01*
X120967500Y-65087500D02*
X120967500Y-70802500D01*
D20*
X192722500Y-130492500D02*
X188277500Y-130492500D01*
X207327500Y-130492500D02*
X192722500Y-130492500D01*
D21*
X120967500Y-70802500D02*
X192722500Y-70802500D01*
X161607500Y-150812500D02*
X161607500Y-153987500D01*
X155257500Y-150812500D02*
X155257500Y-153987500D01*
X148907500Y-150812500D02*
X148907500Y-153987500D01*
X142557500Y-150812500D02*
X142557500Y-153987500D01*
D20*
X118427500Y-74612500D02*
X58102500Y-74612500D01*
X141287500Y-74612500D02*
X164147500Y-74612500D01*
X164147500Y-74612500D02*
X171767500Y-74612500D01*
X141287500Y-74612500D02*
X118427500Y-74612500D01*
X171767500Y-101282500D02*
X141287500Y-101282500D01*
X65087500Y-101282500D02*
X58102500Y-101282500D01*
X126047500Y-121602500D02*
X110807500Y-121602500D01*
X65087500Y-114617500D02*
X65087500Y-121601961D01*
X95631583Y-121601961D02*
X65087500Y-121601961D01*
X65087500Y-121601961D02*
X58103039Y-121601961D01*
D22*
X58103039Y-121601961D02*
X58102500Y-121602500D01*
D20*
X110807500Y-136207500D02*
X110807500Y-140017500D01*
X95567500Y-101282500D02*
X87947500Y-101282500D01*
X126047500Y-101282500D02*
X95567500Y-101282500D01*
X87947500Y-101282500D02*
X80327500Y-101282500D01*
X80327500Y-136207500D02*
X80327500Y-140017500D01*
X141287500Y-136207500D02*
X141287500Y-140017500D01*
X131127500Y-140017500D02*
X126047500Y-140017500D01*
X141287500Y-140017500D02*
X131127500Y-140017500D01*
X126047500Y-136207500D02*
X126047500Y-140017500D01*
X65087500Y-136207500D02*
X65087500Y-140017500D01*
X126047500Y-140017500D02*
X110807500Y-140017500D01*
X110807500Y-140017500D02*
X95567500Y-140017500D01*
X95567500Y-140017500D02*
X80327500Y-140017500D01*
X65722500Y-140017500D02*
X65087500Y-140017500D01*
X75882500Y-140017500D02*
X65722500Y-140017500D01*
X80327500Y-140017500D02*
X75882500Y-140017500D01*
X126047500Y-101282500D02*
X141287500Y-101282500D01*
X65087500Y-101282500D02*
X80327500Y-101282500D01*
X110807500Y-121602500D02*
X95631583Y-121601961D01*
X95567500Y-136207500D02*
X95567500Y-140017500D01*
D21*
X174307500Y-153987500D02*
X180657500Y-153987500D01*
X167957500Y-153987500D02*
X174307500Y-153987500D01*
X161607500Y-153987500D02*
X167957500Y-153987500D01*
X155257500Y-153987500D02*
X161607500Y-153987500D01*
X148907500Y-153987500D02*
X155257500Y-153987500D01*
X142557500Y-153987500D02*
X148907500Y-153987500D01*
X136207500Y-153987500D02*
X142557500Y-153987500D01*
X180657500Y-153987500D02*
X180657500Y-150812500D01*
X136207500Y-150812500D02*
X136207500Y-153987500D01*
X174307500Y-150812500D02*
X174307500Y-153987500D01*
X167957500Y-150812500D02*
X167957500Y-153987500D01*
X75882500Y-150812500D02*
X75882500Y-140017500D01*
X131127500Y-153987500D02*
X131127500Y-140017500D01*
X136207500Y-153987500D02*
X131127500Y-153987500D01*
D20*
X156527500Y-51117500D02*
X164147500Y-51117500D01*
X141287500Y-51117500D02*
X156527500Y-51117500D01*
X133667500Y-51117500D02*
X141287500Y-51117500D01*
X126047500Y-51117500D02*
X133667500Y-51117500D01*
X118427500Y-51117500D02*
X126047500Y-51117500D01*
X110807500Y-51117500D02*
X118427500Y-51117500D01*
X103187500Y-51117500D02*
X110807500Y-51117500D01*
X95567500Y-51117500D02*
X103187500Y-51117500D01*
X87947500Y-51117500D02*
X95567500Y-51117500D01*
X80327500Y-51117500D02*
X87947500Y-51117500D01*
X72707500Y-51117500D02*
X80327500Y-51117500D01*
X65087500Y-51117500D02*
X72707500Y-51117500D01*
X58102500Y-51117500D02*
X65087500Y-51117500D01*
X65087500Y-47942500D02*
X65087500Y-51117500D01*
X80327500Y-47942500D02*
X80327500Y-51117500D01*
X95567500Y-47942500D02*
X95567500Y-51117500D01*
X141287500Y-47942500D02*
X141287500Y-51117500D01*
X156527500Y-47942500D02*
X156527500Y-51117500D01*
X110807500Y-47942500D02*
X110807500Y-51117500D01*
X126047500Y-47942500D02*
X126047500Y-51117500D01*
X126047500Y-121602500D02*
X126047500Y-114617500D01*
X110807500Y-121602500D02*
X110807500Y-114617500D01*
X95631583Y-114681583D02*
X95567500Y-114617500D01*
X95631583Y-121601961D02*
X95631583Y-114681583D01*
X65087500Y-133667500D02*
X58102500Y-133667500D01*
X65087500Y-136207500D02*
X65087500Y-133667500D01*
X56197500Y-140017500D02*
X65722500Y-140017500D01*
X207327500Y-110807500D02*
X188277500Y-110807500D01*
X62547500Y-103187500D02*
X207327500Y-103187500D01*
X62547500Y-106997500D02*
X62547500Y-103187500D01*
D21*
X96202500Y-42862500D02*
X194627500Y-42862500D01*
X95567500Y-40957500D02*
X96202500Y-42862500D01*
X95567500Y-40322500D02*
X95567500Y-40957500D01*
X110807500Y-80327500D02*
X194627500Y-80327500D01*
D20*
X194627500Y-123507500D02*
X188277500Y-123507500D01*
X207327500Y-123507500D02*
X194627500Y-123507500D01*
D21*
X146367500Y-106997500D02*
X194627500Y-106997500D01*
X146367500Y-126047500D02*
X110807500Y-126047500D01*
X110807500Y-128587500D02*
X110807500Y-126047500D01*
X80327500Y-84772500D02*
X80327500Y-78422500D01*
X196532500Y-78422500D02*
X80327500Y-78422500D01*
D20*
X196532500Y-120967500D02*
X188277500Y-120967500D01*
X207327500Y-120967500D02*
X196532500Y-120967500D01*
D21*
X87947500Y-72707500D02*
X126047500Y-72707500D01*
X141287500Y-82232500D02*
X126047500Y-82232500D01*
X176212500Y-123507500D02*
X175577500Y-124142500D01*
X175577500Y-124142500D02*
X175577500Y-148272500D01*
X175577500Y-148272500D02*
X178117500Y-150812500D01*
X178117500Y-123507500D02*
X176212500Y-123507500D01*
X171767500Y-124777500D02*
X175577500Y-120967500D01*
X175577500Y-120967500D02*
X178117500Y-120967500D01*
X171767500Y-150812500D02*
X171767500Y-124777500D01*
X165417500Y-145732500D02*
X167322500Y-143827500D01*
X167322500Y-143827500D02*
X167322500Y-126047500D01*
X167322500Y-126047500D02*
X174942500Y-118427500D01*
X174942500Y-118427500D02*
X178117500Y-118427500D01*
X165417500Y-150812500D02*
X165417500Y-145732500D01*
X178117500Y-115887500D02*
X174307500Y-115887500D01*
X152717500Y-146367500D02*
X152717500Y-150812500D01*
X153352500Y-145732500D02*
X152717500Y-146367500D01*
X160337500Y-145732500D02*
X153352500Y-145732500D01*
X164782500Y-141287500D02*
X160337500Y-145732500D01*
X164782500Y-125412500D02*
X164782500Y-141287500D01*
X174307500Y-115887500D02*
X164782500Y-125412500D01*
X178117500Y-113347500D02*
X173672500Y-113347500D01*
X153352500Y-143827500D02*
X146367500Y-150812500D01*
X158432500Y-143827500D02*
X153352500Y-143827500D01*
X162242500Y-140017500D02*
X158432500Y-143827500D01*
X162242500Y-124777500D02*
X162242500Y-140017500D01*
X173672500Y-113347500D02*
X162242500Y-124777500D01*
X140017500Y-150812500D02*
X140017500Y-147637500D01*
X172402500Y-110807500D02*
X178117500Y-110807500D01*
X159702500Y-123507500D02*
X172402500Y-110807500D01*
X159702500Y-139382500D02*
X159702500Y-123507500D01*
X157797500Y-141287500D02*
X159702500Y-139382500D01*
X146367500Y-141287500D02*
X157797500Y-141287500D01*
X140017500Y-147637500D02*
X146367500Y-141287500D01*
X73342500Y-143192500D02*
X73342500Y-150812500D01*
X90487500Y-65087500D02*
X90487500Y-67627500D01*
X62547500Y-67627500D02*
X62547500Y-65087500D01*
X90487500Y-67627500D02*
X62547500Y-67627500D01*
X103187500Y-65087500D02*
X103187500Y-61912500D01*
X75247500Y-61912500D02*
X75247500Y-65087500D01*
X103187500Y-61912500D02*
X75247500Y-61912500D01*
X138747500Y-84772500D02*
X138747500Y-88582500D01*
X105727500Y-88582500D02*
X105727500Y-84772500D01*
X138747500Y-88582500D02*
X105727500Y-88582500D01*
X95567500Y-106997500D02*
X95567500Y-109537500D01*
X90487500Y-109537500D02*
X90487500Y-106997500D01*
X95567500Y-109537500D02*
X90487500Y-109537500D01*
X65087500Y-104457500D02*
X93027500Y-104457500D01*
X93027500Y-104457500D02*
X93027500Y-106997500D01*
X65087500Y-106997500D02*
X65087500Y-104457500D01*
M02*
