G04 #@! TF.FileFunction,Copper,L2,Bot,Signal*
%FSLAX46Y46*%
G04 Gerber Fmt 4.6, Leading zero omitted, Abs format (unit mm)*
G04 Created by KiCad (PCBNEW (2014-12-04 BZR 5312)-product) date 4/5/2015 3:12:32 PM*
%MOMM*%
G01*
G04 APERTURE LIST*
%ADD10C,0.100000*%
%ADD11C,1.524000*%
%ADD12R,2.032000X1.727200*%
%ADD13O,2.032000X1.727200*%
%ADD14R,2.032000X2.032000*%
%ADD15O,2.032000X2.032000*%
%ADD16C,1.500000*%
%ADD17R,1.500000X1.500000*%
%ADD18C,4.318000*%
%ADD19C,1.422400*%
%ADD20C,0.508000*%
%ADD21C,1.016000*%
%ADD22C,0.635000*%
%ADD23C,1.270000*%
G04 APERTURE END LIST*
D10*
D11*
X180657500Y-150812500D03*
X178117500Y-150812500D03*
X174307500Y-150812500D03*
X171767500Y-150812500D03*
X167957500Y-150812500D03*
X165417500Y-150812500D03*
X161607500Y-150812500D03*
X159067500Y-150812500D03*
X155257500Y-150812500D03*
X152717500Y-150812500D03*
X148907500Y-150812500D03*
X146367500Y-150812500D03*
X142557500Y-150812500D03*
X140017500Y-150812500D03*
X136207500Y-150812500D03*
X133667500Y-150812500D03*
X75882500Y-150812500D03*
X73342500Y-150812500D03*
D12*
X207327500Y-123507500D03*
D13*
X207327500Y-120967500D03*
X207327500Y-118427500D03*
X207327500Y-115887500D03*
X207327500Y-113347500D03*
X207327500Y-110807500D03*
D14*
X207327500Y-133032500D03*
D15*
X207327500Y-130492500D03*
D14*
X56197500Y-137477500D03*
D15*
X56197500Y-140017500D03*
D11*
X188277500Y-123507500D03*
X178117500Y-123507500D03*
X188277500Y-120967500D03*
X178117500Y-120967500D03*
X188277500Y-118427500D03*
X178117500Y-118427500D03*
X188277500Y-115887500D03*
X178117500Y-115887500D03*
X188277500Y-113347500D03*
X178117500Y-113347500D03*
X188277500Y-110807500D03*
X178117500Y-110807500D03*
X188277500Y-133032500D03*
X178117500Y-133032500D03*
X188277500Y-130492500D03*
X178117500Y-130492500D03*
X73342500Y-143192500D03*
X83502500Y-143192500D03*
D16*
X153987500Y-57467500D03*
X164147500Y-57467500D03*
X166687500Y-57467500D03*
X166687500Y-65087500D03*
D17*
X153987500Y-65087500D03*
D16*
X164147500Y-65087500D03*
X151447500Y-65087500D03*
X141287500Y-65087500D03*
X138747500Y-65087500D03*
X138747500Y-57467500D03*
D17*
X151447500Y-57467500D03*
D16*
X141287500Y-57467500D03*
X181927500Y-65087500D03*
X171767500Y-65087500D03*
X169227500Y-65087500D03*
X169227500Y-57467500D03*
D17*
X181927500Y-57467500D03*
D16*
X171767500Y-57467500D03*
X123507500Y-57467500D03*
X133667500Y-57467500D03*
X136207500Y-57467500D03*
X136207500Y-65087500D03*
D17*
X123507500Y-65087500D03*
D16*
X133667500Y-65087500D03*
X108267500Y-57467500D03*
X118427500Y-57467500D03*
X120967500Y-57467500D03*
X120967500Y-65087500D03*
D17*
X108267500Y-65087500D03*
D16*
X118427500Y-65087500D03*
X77787500Y-57467500D03*
X87947500Y-57467500D03*
X90487500Y-57467500D03*
X90487500Y-65087500D03*
D17*
X77787500Y-65087500D03*
D16*
X87947500Y-65087500D03*
X62547500Y-57467500D03*
X72707500Y-57467500D03*
X75247500Y-57467500D03*
X75247500Y-65087500D03*
D17*
X62547500Y-65087500D03*
D16*
X72707500Y-65087500D03*
X93027500Y-57467500D03*
X103187500Y-57467500D03*
X105727500Y-57467500D03*
X105727500Y-65087500D03*
D17*
X93027500Y-65087500D03*
D16*
X103187500Y-65087500D03*
X166687500Y-47942500D03*
X156527500Y-47942500D03*
X153987500Y-47942500D03*
X153987500Y-40322500D03*
D17*
X166687500Y-40322500D03*
D16*
X156527500Y-40322500D03*
X136207500Y-47942500D03*
X126047500Y-47942500D03*
X123507500Y-47942500D03*
X123507500Y-40322500D03*
D17*
X136207500Y-40322500D03*
D16*
X126047500Y-40322500D03*
X151447500Y-47942500D03*
X141287500Y-47942500D03*
X138747500Y-47942500D03*
X138747500Y-40322500D03*
D17*
X151447500Y-40322500D03*
D16*
X141287500Y-40322500D03*
X120967500Y-47942500D03*
X110807500Y-47942500D03*
X108267500Y-47942500D03*
X108267500Y-40322500D03*
D17*
X120967500Y-40322500D03*
D16*
X110807500Y-40322500D03*
X105727500Y-47942500D03*
X95567500Y-47942500D03*
X93027500Y-47942500D03*
X93027500Y-40322500D03*
D17*
X105727500Y-40322500D03*
D16*
X95567500Y-40322500D03*
X90487500Y-47942500D03*
X80327500Y-47942500D03*
X77787500Y-47942500D03*
X77787500Y-40322500D03*
D17*
X90487500Y-40322500D03*
D16*
X80327500Y-40322500D03*
X75247500Y-47942500D03*
X65087500Y-47942500D03*
X62547500Y-47942500D03*
X62547500Y-40322500D03*
D17*
X75247500Y-40322500D03*
D16*
X65087500Y-40322500D03*
X181927500Y-92392500D03*
X171767500Y-92392500D03*
X169227500Y-92392500D03*
X169227500Y-84772500D03*
D17*
X181927500Y-84772500D03*
D16*
X171767500Y-84772500D03*
X153987500Y-84772500D03*
X164147500Y-84772500D03*
X166687500Y-84772500D03*
X166687500Y-92392500D03*
D17*
X153987500Y-92392500D03*
D16*
X164147500Y-92392500D03*
X136207500Y-92392500D03*
X126047500Y-92392500D03*
X123507500Y-92392500D03*
X123507500Y-84772500D03*
D17*
X136207500Y-84772500D03*
D16*
X126047500Y-84772500D03*
X151447500Y-92392500D03*
X141287500Y-92392500D03*
X138747500Y-92392500D03*
X138747500Y-84772500D03*
D17*
X151447500Y-84772500D03*
D16*
X141287500Y-84772500D03*
X108267500Y-84772500D03*
X118427500Y-84772500D03*
X120967500Y-84772500D03*
X120967500Y-92392500D03*
D17*
X108267500Y-92392500D03*
D16*
X118427500Y-92392500D03*
X105727500Y-92392500D03*
X95567500Y-92392500D03*
X93027500Y-92392500D03*
X93027500Y-84772500D03*
D17*
X105727500Y-84772500D03*
D16*
X95567500Y-84772500D03*
X90487500Y-92392500D03*
X80327500Y-92392500D03*
X77787500Y-92392500D03*
X77787500Y-84772500D03*
D17*
X90487500Y-84772500D03*
D16*
X80327500Y-84772500D03*
X75247500Y-92392500D03*
X65087500Y-92392500D03*
X62547500Y-92392500D03*
X62547500Y-84772500D03*
D17*
X75247500Y-84772500D03*
D16*
X65087500Y-84772500D03*
X136207500Y-114617500D03*
X126047500Y-114617500D03*
X123507500Y-114617500D03*
X123507500Y-106997500D03*
D17*
X136207500Y-106997500D03*
D16*
X126047500Y-106997500D03*
X120967500Y-114617500D03*
X110807500Y-114617500D03*
X108267500Y-114617500D03*
X108267500Y-106997500D03*
D17*
X120967500Y-106997500D03*
D16*
X110807500Y-106997500D03*
X77787500Y-106997500D03*
X87947500Y-106997500D03*
X90487500Y-106997500D03*
X90487500Y-114617500D03*
D17*
X77787500Y-114617500D03*
D16*
X87947500Y-114617500D03*
X105727500Y-114617500D03*
X95567500Y-114617500D03*
X93027500Y-114617500D03*
X93027500Y-106997500D03*
D17*
X105727500Y-106997500D03*
D16*
X95567500Y-106997500D03*
X75247500Y-114617500D03*
X65087500Y-114617500D03*
X62547500Y-114617500D03*
X62547500Y-106997500D03*
D17*
X75247500Y-106997500D03*
D16*
X65087500Y-106997500D03*
X151447500Y-136207500D03*
X141287500Y-136207500D03*
X138747500Y-136207500D03*
X138747500Y-128587500D03*
D17*
X151447500Y-128587500D03*
D16*
X141287500Y-128587500D03*
X120967500Y-136207500D03*
X110807500Y-136207500D03*
X108267500Y-136207500D03*
X108267500Y-128587500D03*
D17*
X120967500Y-128587500D03*
D16*
X110807500Y-128587500D03*
X136207500Y-136207500D03*
X126047500Y-136207500D03*
X123507500Y-136207500D03*
X123507500Y-128587500D03*
D17*
X136207500Y-128587500D03*
D16*
X126047500Y-128587500D03*
X90487500Y-136207500D03*
X80327500Y-136207500D03*
X77787500Y-136207500D03*
X77787500Y-128587500D03*
D17*
X90487500Y-128587500D03*
D16*
X80327500Y-128587500D03*
X105727500Y-136207500D03*
X95567500Y-136207500D03*
X93027500Y-136207500D03*
X93027500Y-128587500D03*
D17*
X105727500Y-128587500D03*
D16*
X95567500Y-128587500D03*
X75247500Y-136207500D03*
X65087500Y-136207500D03*
X62547500Y-136207500D03*
X62547500Y-128587500D03*
D17*
X75247500Y-128587500D03*
D16*
X65087500Y-128587500D03*
D18*
X210502500Y-148907500D03*
X210502500Y-39687500D03*
X53657500Y-148907500D03*
X53657500Y-39687500D03*
D19*
X100012500Y-124142500D03*
X105727500Y-53022500D03*
X75247500Y-53022500D03*
X151447500Y-53022500D03*
X136207500Y-53022500D03*
X120967500Y-124142500D03*
X75247500Y-124142500D03*
X151447500Y-98742500D03*
X181927500Y-98742500D03*
X200342500Y-54927500D03*
X200342500Y-37782500D03*
X200342500Y-115887500D03*
X164147500Y-96202500D03*
X200372200Y-96203892D03*
X133667500Y-68897500D03*
X202247500Y-113347500D03*
X202247500Y-68262500D03*
X198437500Y-118427500D03*
X171767500Y-51752500D03*
X198437500Y-51752500D03*
X190817500Y-133032500D03*
X72707500Y-76517500D03*
X190817500Y-76517500D03*
X162877500Y-105092500D03*
X190817500Y-105092500D03*
X157797500Y-96202500D03*
X192722500Y-130492500D03*
X192722500Y-70802500D03*
X58102500Y-133667500D03*
X133667500Y-51117500D03*
X118427500Y-51117500D03*
X103187500Y-51117500D03*
X87947500Y-51117500D03*
X72707500Y-51117500D03*
X58102500Y-51117500D03*
X164147500Y-51117500D03*
X58102500Y-121602500D03*
X95631583Y-121601961D03*
X87947500Y-101282500D03*
X58102500Y-101282500D03*
X65087500Y-101282500D03*
X126047500Y-101282500D03*
X141287500Y-101282500D03*
X171767500Y-101282500D03*
X80327500Y-101282500D03*
X95567500Y-101282500D03*
X171767500Y-74612500D03*
X141287500Y-74612500D03*
X118427500Y-74612500D03*
X164147500Y-74612500D03*
X58102500Y-74612500D03*
X207327500Y-103187500D03*
X194627500Y-106997500D03*
X146367500Y-126047500D03*
X146367500Y-106997500D03*
X194627500Y-123507500D03*
X194627500Y-80327500D03*
X110807500Y-80327500D03*
X194627500Y-42862500D03*
X196532500Y-120967500D03*
X196532500Y-78422500D03*
X141287500Y-82232500D03*
X126047500Y-82232500D03*
X87947500Y-72707500D03*
X126047500Y-72707500D03*
D20*
X83502500Y-143192500D02*
X100012500Y-143192500D01*
X100012500Y-143192500D02*
X100012500Y-124142500D01*
D21*
X75247500Y-114617500D02*
X77787500Y-114617500D01*
X105727500Y-47942500D02*
X105727500Y-53022500D01*
X75247500Y-47942500D02*
X75247500Y-53022500D01*
X136207500Y-47942500D02*
X136207500Y-53022500D01*
X120967500Y-124142500D02*
X120967500Y-128587500D01*
X75247500Y-124142500D02*
X75247500Y-128587500D01*
X75247500Y-124142500D02*
X75247500Y-114617500D01*
X151447500Y-92392500D02*
X151447500Y-98742500D01*
X153987500Y-57467500D02*
X151447500Y-57467500D01*
X151447500Y-47942500D02*
X151447500Y-53022500D01*
X151447500Y-57467500D02*
X151447500Y-53022500D01*
X181927500Y-92392500D02*
X181927500Y-98742500D01*
D22*
X200342500Y-54927500D02*
X200372200Y-54927500D01*
D21*
X200372200Y-96203892D02*
X200372200Y-54927500D01*
X200372200Y-54927500D02*
X200372200Y-37812200D01*
X200372200Y-37812200D02*
X200342500Y-37782500D01*
X200372200Y-96203892D02*
X200342500Y-115887500D01*
D22*
X164147500Y-92392500D02*
X164147500Y-96202500D01*
D20*
X136207500Y-100647500D02*
X141287500Y-105727500D01*
X141287500Y-105727500D02*
X141287500Y-128587500D01*
X136207500Y-92392500D02*
X136207500Y-100647500D01*
D22*
X126047500Y-105092500D02*
X133667500Y-100012500D01*
X126047500Y-106997500D02*
X126047500Y-105092500D01*
X133667500Y-100012500D02*
X133667500Y-68897500D01*
D21*
X202247500Y-68262500D02*
X202247500Y-113347500D01*
D20*
X179387500Y-61277500D02*
X179387500Y-57467500D01*
X179387500Y-84772500D02*
X171767500Y-84772500D01*
X179387500Y-61277500D02*
X179387500Y-84772500D01*
X133667500Y-61912500D02*
X134302500Y-61277500D01*
X159702500Y-61277500D02*
X179387500Y-61277500D01*
X134302500Y-61277500D02*
X159702500Y-61277500D01*
X133667500Y-65087500D02*
X133667500Y-61912500D01*
X181927500Y-57467500D02*
X179387500Y-57467500D01*
X159702500Y-40957500D02*
X156527500Y-40322500D01*
X159702500Y-61277500D02*
X159702500Y-40957500D01*
D22*
X171767500Y-57467500D02*
X171767500Y-51752500D01*
D21*
X198437500Y-118427500D02*
X198437500Y-51752500D01*
X190817500Y-105092500D02*
X190817500Y-133032500D01*
D22*
X72707500Y-65087500D02*
X72707500Y-76517500D01*
X162877500Y-101282500D02*
X157797500Y-96202500D01*
X162877500Y-105092500D02*
X162877500Y-101282500D01*
D21*
X190817500Y-76517500D02*
X190817500Y-105092500D01*
X192722500Y-70802500D02*
X192722500Y-130492500D01*
X58102500Y-121602500D02*
X58102500Y-133667500D01*
X133667500Y-57467500D02*
X133667500Y-51117500D01*
X118427500Y-51117500D02*
X118427500Y-57467500D01*
X103187500Y-57467500D02*
X103187500Y-51117500D01*
X87947500Y-51117500D02*
X87947500Y-57467500D01*
X72707500Y-57467500D02*
X72707500Y-51117500D01*
X58102500Y-74612500D02*
X58102500Y-51117500D01*
X58102500Y-101282500D02*
X58102500Y-74612500D01*
X58102500Y-121602500D02*
X58102500Y-101282500D01*
X164147500Y-57467500D02*
X164147500Y-51117500D01*
D23*
X95567500Y-121537878D02*
X95631583Y-121601961D01*
X87947500Y-106997500D02*
X87947500Y-101282500D01*
D21*
X65087500Y-92392500D02*
X65087500Y-101282500D01*
X126047500Y-92392500D02*
X126047500Y-101282500D01*
X141287500Y-92392500D02*
X141287500Y-101282500D01*
X171767500Y-92392500D02*
X171767500Y-101282500D01*
X80327500Y-92392500D02*
X80327500Y-101282500D01*
X95567500Y-92392500D02*
X95567500Y-101282500D01*
X171767500Y-65087500D02*
X171767500Y-74612500D01*
X141287500Y-65087500D02*
X141287500Y-74612500D01*
X118427500Y-84772500D02*
X118427500Y-74612500D01*
X164147500Y-84772500D02*
X164147500Y-74612500D01*
D20*
X138747500Y-40322500D02*
X138747500Y-44767500D01*
X126047500Y-40322500D02*
X126047500Y-44767500D01*
X153987500Y-44767500D02*
X153987500Y-40322500D01*
X126047500Y-44767500D02*
X138747500Y-44767500D01*
X138747500Y-44767500D02*
X153987500Y-44767500D01*
D21*
X207327500Y-103187500D02*
X207327500Y-110807500D01*
X62547500Y-40322500D02*
X62547500Y-45402500D01*
X62547500Y-45402500D02*
X60007500Y-45402500D01*
X60007500Y-104457500D02*
X60007500Y-84772500D01*
X60007500Y-84772500D02*
X60007500Y-45402500D01*
X60007500Y-106997500D02*
X60007500Y-104457500D01*
X62547500Y-106997500D02*
X60007500Y-106997500D01*
X60007500Y-128587500D02*
X62547500Y-128587500D01*
X60007500Y-104457500D02*
X60007500Y-128587500D01*
X62547500Y-84772500D02*
X60007500Y-84772500D01*
D22*
X146367500Y-106997500D02*
X146367500Y-126047500D01*
D21*
X194627500Y-80327500D02*
X194627500Y-106997500D01*
X194627500Y-106997500D02*
X194627500Y-123507500D01*
D22*
X95567500Y-84772500D02*
X95567500Y-82232500D01*
X110807500Y-82232500D02*
X110807500Y-80327500D01*
X110807500Y-106997500D02*
X110807500Y-82232500D01*
X110807500Y-82232500D02*
X95567500Y-82232500D01*
D21*
X194627500Y-80327500D02*
X194627500Y-42862500D01*
D22*
X83502500Y-114617500D02*
X87947500Y-114617500D01*
X80327500Y-84772500D02*
X83502500Y-84772500D01*
X83502500Y-128587500D02*
X80327500Y-128587500D01*
X83502500Y-84772500D02*
X83502500Y-114617500D01*
X83502500Y-114617500D02*
X83502500Y-128587500D01*
D21*
X196532500Y-78422500D02*
X196532500Y-36512500D01*
X196532500Y-78422500D02*
X196532500Y-120967500D01*
D22*
X80327500Y-36512500D02*
X80327500Y-40322500D01*
X80327500Y-36512500D02*
X196532500Y-36512500D01*
D20*
X141287500Y-82232500D02*
X141287500Y-84772500D01*
X153987500Y-88582500D02*
X141287500Y-88582500D01*
X141287500Y-88582500D02*
X141287500Y-84772500D01*
X153987500Y-84772500D02*
X153987500Y-88582500D01*
X126047500Y-72707500D02*
X126047500Y-82232500D01*
X87947500Y-65087500D02*
X87947500Y-72707500D01*
X126047500Y-84772500D02*
X126047500Y-82232500D01*
X165417500Y-150177500D02*
X165417500Y-150812500D01*
X140017500Y-150812500D02*
X140017500Y-144462500D01*
X146367500Y-133032500D02*
X178117500Y-133032500D01*
X145732500Y-133667500D02*
X146367500Y-133032500D01*
X145732500Y-138747500D02*
X145732500Y-133667500D01*
X140017500Y-144462500D02*
X145732500Y-138747500D01*
X133667500Y-150812500D02*
X133667500Y-131127500D01*
X134302500Y-130492500D02*
X178117500Y-130492500D01*
X133667500Y-131127500D02*
X134302500Y-130492500D01*
X169227500Y-57467500D02*
X166687500Y-57467500D01*
X169227500Y-65087500D02*
X166687500Y-65087500D01*
X138747500Y-57467500D02*
X138747500Y-59372500D01*
X123507500Y-59372500D02*
X123507500Y-57467500D01*
X138747500Y-59372500D02*
X123507500Y-59372500D01*
X123507500Y-40322500D02*
X120967500Y-40322500D01*
X90487500Y-40322500D02*
X90487500Y-38417500D01*
X108267500Y-38417500D02*
X108267500Y-40322500D01*
X90487500Y-38417500D02*
X108267500Y-38417500D01*
X110807500Y-40322500D02*
X110172500Y-44132500D01*
X110172500Y-44132500D02*
X96202500Y-44132500D01*
X96202500Y-44132500D02*
X93027500Y-47942500D01*
X77787500Y-40322500D02*
X77787500Y-42862500D01*
X65087500Y-40322500D02*
X65087500Y-42862500D01*
X65087500Y-42862500D02*
X77787500Y-42862500D01*
X169227500Y-92392500D02*
X166687500Y-92392500D01*
X169227500Y-84772500D02*
X166687500Y-84772500D01*
X123507500Y-92392500D02*
X120967500Y-92392500D01*
X123507500Y-84772500D02*
X120967500Y-84772500D01*
X93027500Y-84772500D02*
X90487500Y-84772500D01*
X77787500Y-84772500D02*
X77787500Y-87947500D01*
X65087500Y-87947500D02*
X65087500Y-84772500D01*
X77787500Y-87947500D02*
X65087500Y-87947500D01*
X123507500Y-106997500D02*
X120967500Y-106997500D01*
X108267500Y-106997500D02*
X105727500Y-106997500D01*
X138747500Y-128587500D02*
X136207500Y-128587500D01*
X126047500Y-133667500D02*
X108267500Y-133667500D01*
X108267500Y-133667500D02*
X108267500Y-136207500D01*
X126047500Y-128587500D02*
X126047500Y-133667500D01*
X123507500Y-131127500D02*
X105727500Y-131127500D01*
X105727500Y-131127500D02*
X105727500Y-128587500D01*
X123507500Y-128587500D02*
X123507500Y-131127500D01*
X95567500Y-133032500D02*
X77787500Y-133032500D01*
X77787500Y-133032500D02*
X77787500Y-136207500D01*
X95567500Y-128587500D02*
X95567500Y-133032500D01*
X93027500Y-131127500D02*
X65087500Y-131127500D01*
X93027500Y-128587500D02*
X93027500Y-131127500D01*
X65087500Y-131127500D02*
X65087500Y-128587500D01*
M02*
