M48
INCH,TZ
T1C0.029
T2C0.032
T3C0.039
T4C0.040
T5C0.160
%
G90
G05
T1
X22875Y-20125
X22875Y-29375
X22875Y-39875
X22875Y-47875
X22875Y-52625
X25625Y-39875
X28625Y-20125
X28625Y-30125
X28875Y-59375
X29625Y-20875
X29625Y-48875
X29875Y-59375
X31625Y-39875
X34625Y-20125
X34625Y-28625
X34625Y-39875
X37625Y-39875
X37650Y-47875
X39375Y-48875
X40625Y-20125
X41625Y-20875
X43625Y-31625
X46625Y-20125
X46625Y-29375
X47625Y-48875
X49625Y-28625
X49625Y-32375
X49625Y-39875
X52625Y-20125
X52625Y-27125
X52625Y-59375
X53625Y-20875
X53625Y-59375
X55125Y-59375
X55625Y-29375
X55625Y-32375
X55625Y-39875
X56125Y-59375
X57625Y-42125
X57625Y-49625
X57625Y-59375
X58625Y-59375
X59625Y-20875
X59625Y-38875
X60125Y-59375
X61125Y-59375
X62125Y-37875
X62625Y-59375
X63625Y-59375
X64125Y-41375
X64625Y-20125
X64625Y-29375
X64625Y-37875
X65125Y-59375
X66125Y-59375
X67625Y-20375
X67625Y-29375
X67625Y-39875
X67625Y-59375
X68625Y-59375
X70125Y-59375
X71125Y-59375
X71625Y-38875
X75125Y-30125
X75125Y-41375
X75125Y-52375
X75875Y-27875
X75875Y-51375
X76625Y-16875
X76625Y-31625
X76625Y-42125
X76625Y-48625
X77375Y-30875
X77375Y-47625
X78125Y-20375
X78125Y-46625
X78875Y-14875
X78875Y-21625
X78875Y-45625
X78887Y-37876
X79625Y-26875
X79625Y-44625
X81625Y-40625
T2
X28875Y-56375
X32875Y-56375
X70125Y-43625
X70125Y-44625
X70125Y-45625
X70125Y-46625
X70125Y-47625
X70125Y-48625
X70125Y-51375
X70125Y-52375
X74125Y-43625
X74125Y-44625
X74125Y-45625
X74125Y-46625
X74125Y-47625
X74125Y-48625
X74125Y-51375
X74125Y-52375
T3
X24625Y-15875
X24625Y-18875
X24625Y-22625
X24625Y-25625
X24625Y-33375
X24625Y-36375
X24625Y-42125
X24625Y-45125
X24625Y-50625
X24625Y-53625
X25625Y-15875
X25625Y-18875
X25625Y-33375
X25625Y-36375
X25625Y-42125
X25625Y-45125
X25625Y-50625
X25625Y-53625
X28625Y-22625
X28625Y-25625
X29625Y-15875
X29625Y-18875
X29625Y-22625
X29625Y-25625
X29625Y-33375
X29625Y-36375
X29625Y-42125
X29625Y-45125
X29625Y-50625
X29625Y-53625
X30625Y-15875
X30625Y-18875
X30625Y-22625
X30625Y-25625
X30625Y-33375
X30625Y-36375
X30625Y-42125
X30625Y-45125
X30625Y-50625
X30625Y-53625
X31625Y-15875
X31625Y-18875
X31625Y-33375
X31625Y-36375
X31625Y-50625
X31625Y-53625
X34625Y-22625
X34625Y-25625
X34625Y-42125
X34625Y-45125
X35625Y-15875
X35625Y-18875
X35625Y-22625
X35625Y-25625
X35625Y-33375
X35625Y-36375
X35625Y-42125
X35625Y-45125
X35625Y-50625
X35625Y-53625
X36625Y-15875
X36625Y-18875
X36625Y-22625
X36625Y-25625
X36625Y-33375
X36625Y-36375
X36625Y-42125
X36625Y-45125
X36625Y-50625
X36625Y-53625
X37625Y-15875
X37625Y-18875
X37625Y-33375
X37625Y-36375
X37625Y-42125
X37625Y-45125
X37625Y-50625
X37625Y-53625
X40625Y-22625
X40625Y-25625
X41625Y-15875
X41625Y-18875
X41625Y-22625
X41625Y-25625
X41625Y-33375
X41625Y-36375
X41625Y-42125
X41625Y-45125
X41625Y-50625
X41625Y-53625
X42625Y-15875
X42625Y-18875
X42625Y-22625
X42625Y-25625
X42625Y-33375
X42625Y-36375
X42625Y-42125
X42625Y-45125
X42625Y-50625
X42625Y-53625
X43625Y-15875
X43625Y-18875
X43625Y-42125
X43625Y-45125
X43625Y-50625
X43625Y-53625
X46625Y-22625
X46625Y-25625
X46625Y-33375
X46625Y-36375
X47625Y-15875
X47625Y-18875
X47625Y-22625
X47625Y-25625
X47625Y-33375
X47625Y-36375
X47625Y-42125
X47625Y-45125
X47625Y-50625
X47625Y-53625
X48625Y-15875
X48625Y-18875
X48625Y-22625
X48625Y-25625
X48625Y-33375
X48625Y-36375
X48625Y-42125
X48625Y-45125
X48625Y-50625
X48625Y-53625
X49625Y-15875
X49625Y-18875
X49625Y-33375
X49625Y-36375
X49625Y-42125
X49625Y-45125
X49625Y-50625
X49625Y-53625
X52625Y-22625
X52625Y-25625
X53625Y-15875
X53625Y-18875
X53625Y-22625
X53625Y-25625
X53625Y-33375
X53625Y-36375
X53625Y-42125
X53625Y-45125
X53625Y-50625
X53625Y-53625
X54625Y-15875
X54625Y-18875
X54625Y-22625
X54625Y-25625
X54625Y-33375
X54625Y-36375
X54625Y-50625
X54625Y-53625
X55625Y-15875
X55625Y-18875
X55625Y-22625
X55625Y-25625
X55625Y-33375
X55625Y-36375
X55625Y-50625
X55625Y-53625
X59625Y-15875
X59625Y-18875
X59625Y-22625
X59625Y-25625
X59625Y-33375
X59625Y-36375
X59625Y-50625
X59625Y-53625
X60625Y-15875
X60625Y-18875
X60625Y-22625
X60625Y-25625
X60625Y-33375
X60625Y-36375
X61625Y-15875
X61625Y-18875
X64625Y-22625
X64625Y-25625
X64625Y-33375
X64625Y-36375
X65625Y-15875
X65625Y-18875
X65625Y-22625
X65625Y-25625
X65625Y-33375
X65625Y-36375
X66625Y-22625
X66625Y-25625
X66625Y-33375
X66625Y-36375
X67625Y-22625
X67625Y-25625
X67625Y-33375
X67625Y-36375
X71625Y-22625
X71625Y-25625
X71625Y-33375
X71625Y-36375
T4
X22125Y-54125
X22125Y-55125
X81625Y-43625
X81625Y-44625
X81625Y-45625
X81625Y-46625
X81625Y-47625
X81625Y-48625
X81625Y-51375
X81625Y-52375
T5
X21125Y-15625
X21125Y-58625
X82875Y-15625
X82875Y-58625
T0
M30
